 http://www.imdb.com/title/tt1052040/
 
http://www.seventhmoon.com/

Horror

User Rating:5.2/10 - 171 votes

Director:Eduardo Sánchez

Cast:Dennis Chan/Tim Chiou/Amy Smart

Plot:
According to an ancient Chinese myth on the full moon of the seventh lunar month,the gates of hell open and the dead are freed to roam among the living.While honeymooning in China,a young couple takes part in a sacred event that honors these spirits.As night falls, their tour guide abandons them in a desolate field.Now what they thought was a joke is becoming far too real as they fight to survive the night of the Seventh Moon..

Info:

General
Complete name                    : Seventh Moon-AC3-5,1-DVDRip[Eng]2008.avi
Format                           : AVI
Format/Info                      : Audio Video Interleave
File size                        : 1.19 GiB
Duration                         : 1h 26mn
Overall bit rate                 : 1 967 Kbps
Writing application              : VirtualDubMod 1.5.4.1 (build 2178/release)
Writing library                  : VirtualDubMod build 2178/release

Video
Format                           : MPEG-4 Visual
Format profile                   : Simple@L3
Format settings, BVOP            : No
Format settings, QPel            : No
Format settings, GMC             : No warppoints
Format settings, Matrix          : Default
Codec ID                         : XVID
Codec ID/Hint                    : XviD
Duration                         : 1h 26mn
Bit rate                         : 1 510 Kbps
Width                            : 704 pixels
Height                           : 400 pixels
Display aspect ratio             : 16/9
Frame rate                       : 23.976 fps
Resolution                       : 24 bits
Colorimetry                      : 4:2:0
Scan type                        : Progressive
Bits/(Pixel*Frame)               : 0.224
Stream size                      : 937 MiB (77%)
Writing library                  : XviD 1.1.2 (UTC 2006-11-01)

Audio
Format                           : AC-3
Format/Info                      : Audio Coding 3
Codec ID                         : 2000
Duration                         : 1h 26mn
Bit rate mode                    : Constant
Bit rate                         : 448 Kbps
Channel(s)                       : 6 channels
Channel positions                : Front: L C R, Surround: L R, LFE
Sampling rate                    : 48.0 KHz
Stream size                      : 278 MiB (23%)
Alignment                        : Split accross interleaves
Interleave, duration             : 42 ms (1.00 video frame)
Interleave, preload duration     : 500 ms

Enjoy...